<svg xmlns="http://www.w3.org/2000/svg" version="1.0" width="500.000000pt" height="500.000000pt" viewBox="0 0 500.000000 500.000000" preserveAspectRatio="xMidYMid meet">
<metadata>
Created by potrace 1.15, written by Peter Selinger 2001-2017
</metadata>
<g transform="translate(0.000000,500.000000) scale(0.100000,-0.100000)" fill="#000000" stroke="none">
<path d="M1643 4720 c-109 -22 -208 -92 -247 -174 -46 -94 -54 -174 -55 -511 0 -550 -13 -1270 -23 -1276 -5 -3 -2 -12 7 -19 14 -12 16 -114 15 -1074 -1 -760 2 -1075 10 -1111 34 -151 155 -258 320 -284 82 -14 1536 -14 1637 -1 105 14 254 85 236 113 -3 6 -1 7 5 3 15 -9 66 69 56 85 -5 8 -3 9 6 4 9 -6 10 -2 5 15 -5 15 -4 20 4 16 7 -5 9 -1 5 8 -4 9 -1 16 6 16 7 0 10 7 6 17 -4 9 -1 20 6 24 10 7 13 178 13 861 l0 853 -5 -820 c-5 -738 -5 -682 -7 560 -1 777 2 1371 7 1360 5 -11 9 -17 10 -12 0 7 1 378 0 395 0 4 -5 0 -11 -8 -7 -11 -8 55 -4 220 12 402 12 404 -9 452 -4 9 -5 21 -2 27 3 5 0 15 -7 23 -8 7 -12 18 -10 24 6 19 -62 108 -112 145 -99 76 -60 73 -990 75 -456 1 -849 -2 -872 -6z m1747 -25 c120 -43 206 -147 230 -276 7 -37 9 -698 8 -1955 l-3 -1899 -24 -60 c-34 -84 -115 -163 -201 -196 l-65 -24 -845 0 -845 0 -57 23 c-70 28 -145 94 -180 159 -16 30 -30 78 -37 126 -15 108 -15 3725 0 3817 19 117 74 203 165 256 89 52 103 53 984 51 784 -2 817 -3 870 -22z"/>
<path d="M1703 4639 c-122 -15 -204 -75 -245 -178 l-23 -56 -3 -1787 c-2 -1782 -2 -1788 18 -1808 20 -20 30 -20 1039 -20 1016 0 1018 0 1045 21 l26 21 -2 1796 -3 1797 -23 50 c-44 96 -113 147 -223 165 -76 12 -1511 12 -1606 -1z m1026 -612 c90 -190 129 -365 138 -623 6 -195 -4 -316 -38 -463 -19 -83 -20 -128 0 -55 5 22 14 55 20 74 9 33 10 32 5 -15 -3 -27 -7 -66 -10 -85 -10 -64 11 -20 28 58 9 42 17 66 17 52 2 -42 -26 -184 -64 -326 -38 -145 -40 -158 -25 -149 31 19 118 416 133 610 2 22 4 -11 5 -73 1 -62 6 -111 11 -108 4 3 9 28 9 55 1 29 10 64 22 86 11 19 20 42 20 51 0 8 7 26 16 39 9 13 12 30 8 36 -4 8 -3 9 4 5 7 -4 12 -1 12 6 0 23 40 51 54 39 15 -13 26 -4 26 20 0 12 10 18 34 21 40 4 58 0 51 -13 -4 -5 1 -6 9 -3 9 3 16 10 16 15 0 4 7 6 15 3 8 -4 15 -12 15 -20 0 -8 5 -14 10 -14 6 0 10 4 10 8 0 5 7 9 15 9 8 0 15 -6 15 -13 0 -7 9 -18 20 -24 11 -6 20 -15 20 -21 0 -6 -4 -8 -8 -5 -10 6 -38 -11 -31 -19 6 -5 55 -9 97 -6 17 1 22 7 23 29 2 21 3 18 9 -13 5 -30 8 -10 11 75 7 239 15 -364 17 -1359 2 -735 -1 -1007 -9 -1017 -9 -12 -111 -14 -575 -14 -310 0 -564 2 -564 4 0 12 65 142 74 148 8 5 7 11 -2 20 -9 9 -16 8 -31 -9 -11 -11 -18 -23 -15 -26 3 -3 2 -7 -3 -10 -4 -3 -14 1 -21 9 -8 9 -9 14 -2 14 12 0 4 41 -10 50 -4 3 -15 19 -24 37 -16 32 -23 143 -9 157 4 3 8 16 10 28 6 36 47 118 60 118 7 0 13 9 13 21 0 11 9 28 19 37 20 18 37 72 22 72 -5 0 -16 17 -24 39 -9 21 -23 41 -31 44 -9 4 -16 15 -16 25 0 11 -7 25 -15 32 -8 7 -15 18 -15 25 0 7 -18 25 -41 40 -22 16 -45 37 -50 47 -5 10 -16 18 -23 18 -7 0 -25 14 -39 30 -15 17 -32 30 -38 30 -6 0 -17 6 -25 14 -24 24 -149 59 -186 52 -18 -3 -36 -5 -40 -3 -19 7 -126 -126 -211 -264 -53 -85 -99 -163 -103 -172 -13 -34 -27 -17 -22 27 7 57 110 245 194 352 69 89 249 264 271 264 8 0 12 4 8 9 -3 5 -1 12 5 16 5 3 10 1 10 -5 0 -6 13 -1 29 11 23 17 37 20 67 15 40 -7 124 -70 124 -93 0 -7 9 -13 20 -13 11 0 20 6 20 13 0 14 106 68 135 67 11 0 37 14 58 31 31 26 37 37 37 69 0 56 18 88 52 95 36 8 45 28 26 58 -8 12 -18 45 -22 73 -7 56 1 70 64 114 41 29 80 69 80 82 0 6 9 23 21 39 21 30 12 41 -11 14 -27 -33 -19 -5 15 54 44 75 70 147 90 253 22 116 18 123 -17 34 -30 -76 -35 -83 -212 -258 -241 -239 -340 -323 -166 -142 153 160 228 260 299 395 74 142 86 200 85 409 -1 119 -6 202 -17 258 -20 100 -73 286 -93 324 -8 15 -14 29 -14 33 0 17 13 -4 49 -78z m-775 -172 c51 -47 32 -124 -53 -217 l-53 -58 66 0 c37 0 66 -4 66 -10 0 -6 -37 -10 -92 -10 l-92 0 40 43 c105 111 133 163 114 213 -19 48 -100 50 -115 2 -7 -19 -35 -25 -35 -7 0 6 13 24 29 40 38 38 87 39 125 4z m320 -90 c-1 -98 0 -108 18 -113 21 -5 19 -27 -2 -27 -9 0 -14 -11 -15 -29 0 -40 -23 -45 -27 -6 -3 31 -3 31 -72 35 -37 2 -70 6 -73 9 -7 6 158 247 166 242 3 -2 5 -52 5 -111z m216 95 c0 -6 -27 -10 -60 -10 l-60 0 0 -48 c0 -48 0 -48 29 -44 33 5 86 -20 101 -47 13 -25 13 -87 0 -112 -13 -23 -61 -49 -92 -49 -27 0 -88 35 -88 50 0 15 26 12 40 -5 18 -21 83 -19 103 3 29 32 31 74 6 106 -21 27 -26 28 -76 23 -53 -6 -53 -5 -53 22 0 16 3 49 6 75 l7 46 68 0 c39 0 69 -4 69 -10z m-560 -410 c0 -5 -5 -10 -11 -10 -5 0 -7 -5 -4 -10 5 -8 11 -7 21 1 7 6 21 9 29 5 9 -3 15 0 15 9 0 18 17 20 22 3 3 -7 18 -11 37 -10 25 2 33 -2 41 -20 8 -22 9 -22 9 -2 1 19 7 21 71 21 39 0 70 -3 70 -8 0 -21 -25 -59 -39 -59 -11 0 -12 3 -4 11 6 6 9 18 6 25 -7 19 -21 18 -19 -2 1 -13 -10 -17 -52 -20 -47 -2 -54 0 -62 19 -7 18 -9 18 -9 5 -1 -10 -9 -19 -18 -20 -62 -5 -80 -3 -97 11 -14 12 -20 13 -23 4 -3 -7 -9 -13 -14 -13 -10 0 -12 53 -2 63 10 11 33 8 33 -3z m-180 -2305 c37 -19 50 -43 50 -92 0 -55 -44 -98 -101 -98 -34 0 -46 6 -70 33 -79 88 16 211 121 157z"/>
</g>
</svg>
